<svg width="4" height="5" viewBox="0 0 4 5" fill="none" xmlns="http://www.w3.org/2000/svg">
<path d="M2.0352 4.764C1.6512 4.764 1.3072 4.676 1.0032 4.5C0.699203 4.324 0.459203 4.084 0.283203 3.78C0.107203 3.476 0.0192032 3.132 0.0192032 2.748C0.0192032 2.38 0.103203 2.052 0.271203 1.764C0.447203 1.468 0.687203 1.236 0.991203 1.068C1.2952 0.892 1.6432 0.804 2.0352 0.804C2.4032 0.804 2.7312 0.892 3.0192 1.068C3.3072 1.236 3.5352 1.468 3.7032 1.764C3.8792 2.06 3.9712 2.388 3.9792 2.748C3.9792 3.132 3.8912 3.476 3.7152 3.78C3.5472 4.084 3.3152 4.324 3.0192 4.5C2.7312 4.676 2.4032 4.764 2.0352 4.764Z" fill="#9399B3"/>
</svg>
